<?xml version="1.0" encoding="utf-8"?>
<svg width="1773px" height="498px" viewBox="0 0 1773 498" version="1.1" xmlns:xlink="http://www.w3.org/1999/xlink" xmlns="http://www.w3.org/2000/svg">
  <g id="Group-2">
    <g id="Group">
      <path d="M184.014 158.46L168.055 177.08C168.055 177.08 122.586 186.292 102.706 208.14C82.8262 229.988 76.4348 268.048 76.4348 268.048C76.4348 268.048 64.2313 232.422 66.1998 210.574C68.1681 188.727 84.3079 180.657 84.3079 180.657C84.3079 180.657 68.9572 175.514 55.3761 177.08C41.7949 178.646 29.9834 192.247 29.9834 192.247C29.9834 192.247 23.4881 153.694 37.0693 135.586C50.6504 117.478 84.3079 108.224 84.3079 108.224C84.3079 108.224 64.0342 96.8068 42.9737 92.8703C21.913 88.9336 0 98.242 0 98.242C0 98.242 5.57683 69.6484 37.0693 57.8387C68.562 46.029 81.3556 47.0457 103.203 50.1949C125.052 53.3442 142.569 57.8359 142.569 57.8359C142.569 57.8359 154.276 33.323 171.597 18.5617C188.917 3.80041 199.431 -2.09839 238.01 0.657203C276.588 3.4128 299.324 40.3485 299.324 40.3485C299.324 40.3485 275.429 37.1992 257.517 40.3485C239.605 43.4978 225.237 57.8359 225.237 57.8359C225.237 57.8359 251.349 48.5754 278.709 64.9123C306.068 81.2491 313.135 89.1315 330.062 115.31C346.989 141.488 334.674 169.634 334.674 169.634C334.674 169.634 329.95 141.291 311.054 131.843C292.159 122.395 284.403 126.294 284.403 126.294C284.403 126.294 292.829 133.73 299.324 156.436C305.819 179.142 301.41 206.133 296.883 222.667C292.356 239.201 278.775 246.791 278.775 246.791C278.775 246.791 284.071 227.108 268.127 210.575C252.184 194.041 203.23 177.08 203.23 177.08L184.014 158.46Z" id="Vector-2" fill="#2C4F2B" fill-opacity="0.49803922" fill-rule="evenodd" stroke="none" />
      <path d="M146.499 134.123L146.499 419.123L193.499 419.123L193.499 134.123L146.499 134.123Z" id="Vector" fill="#2C4F2B" fill-rule="evenodd" stroke="none" />
      <path d="M85.1859 193.122C85.1859 193.122 131.061 173.524 173.518 173.524C215.976 173.524 255.016 193.122 255.016 193.122L279.5 157.024C279.5 157.024 228.518 129.024 173.518 129.024C118.518 129.024 59.5 157.024 59.5 157.024L85.1859 193.122Z" id="Vector-5" fill="#2C4F2B" fill-rule="evenodd" stroke="none" />
    </g>
    <g id="OCOCO" transform="translate(253 38)">
      <g id="OCOCO" fill="#2C4F2B">
        <path d="M157.928 101.074Q215.095 101.074 256.229 142.456Q297.363 183.838 297.363 243.347Q297.363 302.307 256.778 343.14Q216.193 383.972 158.295 383.972Q97.6467 383.972 57.5209 342.041Q17.395 300.11 17.395 242.432Q17.395 203.796 36.0847 171.387Q54.7743 138.977 87.4786 120.026Q120.183 101.074 157.928 101.074ZM157.379 151.245Q119.986 151.245 94.5082 177.246Q69.0308 203.247 69.0308 243.347Q69.0308 288.025 101.109 314.026Q126.037 334.351 158.295 334.351Q194.77 334.351 220.432 307.983Q246.094 281.616 246.094 242.981Q246.094 204.529 220.249 177.887Q194.404 151.245 157.379 151.245ZM593.262 155.185L557.405 189.368Q520.815 150.696 475.079 150.696Q436.478 150.696 410.042 177.089Q383.606 203.482 383.606 242.157Q383.606 269.099 395.315 289.995Q407.023 310.89 428.428 322.803Q449.833 334.717 475.994 334.717Q498.313 334.717 516.789 326.377Q535.266 318.037 557.405 296.044L592.163 332.314Q562.317 361.442 535.767 372.707Q509.216 383.972 475.159 383.972Q412.354 383.972 372.345 344.147Q332.336 304.321 332.336 242.065Q332.336 201.782 350.555 170.471Q368.774 139.16 402.74 120.117Q436.707 101.074 475.891 101.074Q509.216 101.074 540.07 115.15Q570.923 129.227 593.262 155.185ZM765.289 101.074Q822.455 101.074 863.59 142.456Q904.724 183.838 904.724 243.347Q904.724 302.307 864.139 343.14Q823.554 383.972 765.656 383.972Q705.008 383.972 664.882 342.041Q624.756 300.11 624.756 242.432Q624.756 203.796 643.445 171.387Q662.135 138.977 694.839 120.026Q727.544 101.074 765.289 101.074ZM764.74 151.245Q727.346 151.245 701.869 177.246Q676.392 203.247 676.392 243.347Q676.392 288.025 708.469 314.026Q733.397 334.351 765.656 334.351Q802.131 334.351 827.793 307.983Q853.455 281.616 853.455 242.981Q853.455 204.529 827.61 177.887Q801.765 151.245 764.74 151.245ZM1200.62 155.185L1164.77 189.368Q1128.18 150.696 1082.44 150.696Q1043.84 150.696 1017.4 177.089Q990.967 203.482 990.967 242.157Q990.967 269.099 1002.68 289.995Q1014.38 310.89 1035.79 322.803Q1057.19 334.717 1083.35 334.717Q1105.67 334.717 1124.15 326.377Q1142.63 318.037 1164.77 296.044L1199.52 332.314Q1169.68 361.442 1143.13 372.707Q1116.58 383.972 1082.52 383.972Q1019.71 383.972 979.706 344.147Q939.697 304.321 939.697 242.065Q939.697 201.782 957.916 170.471Q976.135 139.16 1010.1 120.117Q1044.07 101.074 1083.25 101.074Q1116.58 101.074 1147.43 115.15Q1178.28 129.227 1200.62 155.185ZM1372.65 101.074Q1429.82 101.074 1470.95 142.456Q1512.08 183.838 1512.08 243.347Q1512.08 302.307 1471.5 343.14Q1430.91 383.972 1373.02 383.972Q1312.37 383.972 1272.24 342.041Q1232.12 300.11 1232.12 242.432Q1232.12 203.796 1250.81 171.387Q1269.5 138.977 1302.2 120.026Q1334.9 101.074 1372.65 101.074ZM1372.1 151.245Q1334.71 151.245 1309.23 177.246Q1283.75 203.247 1283.75 243.347Q1283.75 288.025 1315.83 314.026Q1340.76 334.351 1373.02 334.351Q1409.49 334.351 1435.15 307.983Q1460.82 281.616 1460.82 242.981Q1460.82 204.529 1434.97 177.887Q1409.13 151.245 1372.1 151.245Z" />
      </g>
    </g>
  </g>
</svg>