<?xml version="1.0" encoding="utf-8"?>
<svg width="339px" height="419.12305px" viewBox="0 0 339 419.12305" version="1.1" xmlns:xlink="http://www.w3.org/1999/xlink" xmlns="http://www.w3.org/2000/svg">
  <g id="Group">
    <path d="M184.014 158.46L168.055 177.08C168.055 177.08 122.586 186.292 102.706 208.14C82.8262 229.988 76.4348 268.048 76.4348 268.048C76.4348 268.048 64.2313 232.422 66.1998 210.574C68.1681 188.727 84.3079 180.657 84.3079 180.657C84.3079 180.657 68.9572 175.514 55.3761 177.08C41.7949 178.646 29.9834 192.247 29.9834 192.247C29.9834 192.247 23.4881 153.694 37.0693 135.586C50.6504 117.478 84.3079 108.224 84.3079 108.224C84.3079 108.224 64.0342 96.8068 42.9737 92.8703C21.913 88.9336 0 98.242 0 98.242C0 98.242 5.57683 69.6484 37.0693 57.8387C68.562 46.029 81.3556 47.0457 103.203 50.1949C125.052 53.3442 142.569 57.8359 142.569 57.8359C142.569 57.8359 154.276 33.323 171.597 18.5617C188.917 3.80041 199.431 -2.09839 238.01 0.657203C276.588 3.4128 299.324 40.3485 299.324 40.3485C299.324 40.3485 275.429 37.1992 257.517 40.3485C239.605 43.4978 225.237 57.8359 225.237 57.8359C225.237 57.8359 251.349 48.5754 278.709 64.9123C306.068 81.2491 313.135 89.1315 330.062 115.31C346.989 141.488 334.674 169.634 334.674 169.634C334.674 169.634 329.95 141.291 311.054 131.843C292.159 122.395 284.403 126.294 284.403 126.294C284.403 126.294 292.829 133.73 299.324 156.436C305.819 179.142 301.41 206.133 296.883 222.667C292.356 239.201 278.775 246.791 278.775 246.791C278.775 246.791 284.071 227.108 268.127 210.575C252.184 194.041 203.23 177.08 203.23 177.08L184.014 158.46Z" id="Vector-2" fill="#2C4F2B" fill-opacity="0.49803922" fill-rule="evenodd" stroke="none" />
    <path d="M146.499 134.123L146.499 419.123L193.499 419.123L193.499 134.123L146.499 134.123Z" id="Vector" fill="#2C4F2B" fill-rule="evenodd" stroke="none" />
    <path d="M85.1859 193.122C85.1859 193.122 131.061 173.524 173.518 173.524C215.976 173.524 255.016 193.122 255.016 193.122L279.5 157.024C279.5 157.024 228.518 129.024 173.518 129.024C118.518 129.024 59.5 157.024 59.5 157.024L85.1859 193.122Z" id="Vector-5" fill="#2C4F2B" fill-rule="evenodd" stroke="none" />
  </g>
</svg>